<svg width="120" height="105" viewBox="0 0 120 105" fill="none" xmlns="http://www.w3.org/2000/svg">
<path d="M22.2563 74.1028C22.2563 74.1028 20.7199 72.7561 19.1307 72.2958C17.5414 71.8355 15.7095 71.8262 14.1265 71.3939C12.5434 70.9615 11.598 70.5977 11.598 70.5977L11.5171 72.0283L22.191 74.9114L29.4936 72.8898L30.2214 71.4063C29.4256 71.7767 28.5911 72.0573 27.7333 72.2429C26.144 72.6192 24.365 72.6192 23.3791 72.9987C22.3932 73.3781 22.2563 74.1028 22.2563 74.1028Z" fill="#AAD0B1" stroke="#263238" stroke-linecap="round" stroke-linejoin="round"/>
<path d="M11.3683 70.9199C13.4547 71.5581 15.5935 72.0108 17.7596 72.2728C19.3888 72.4939 20.9357 73.1229 22.2568 74.1016C23.3314 73.4147 24.5686 73.0242 25.8428 72.9695C27.3754 72.8534 28.8874 72.5451 30.3431 72.052L29.8859 72.985L22.0422 74.5215L11.2065 71.6912L11.3683 70.9199Z" fill="#AAD0B1" stroke="#263238" stroke-linecap="round" stroke-linejoin="round"/>
<path d="M11.0731 71.2441C12.7309 71.8795 14.468 72.2845 16.2359 72.4478C19.1221 72.6655 22.1762 74.1023 22.1762 74.1023C23.3575 73.5066 24.6545 73.1754 25.9768 73.132C27.4608 73.1191 28.9372 72.9195 30.3714 72.5379C30.3267 72.6869 30.3155 72.8439 30.3386 72.9977C30.3618 73.1515 30.4186 73.2982 30.5051 73.4275L22.1482 75.2065L11.0171 71.9719L11.0731 71.2441Z" fill="#AAD0B1" stroke="#263238" stroke-linecap="round" stroke-linejoin="round"/>
<path d="M10.9359 71.8379L21.7995 74.5593V74.9325L22.7139 74.9574V74.5282L30.7474 73.2592C30.7474 73.2592 31.0988 73.1784 30.8002 73.5702C30.5016 73.9621 25.3295 78.478 25.3295 78.478L19.5882 79.069L10.8799 77.1562L10.9359 71.8379Z" fill="#65A772"/>
<mask id="mask0_4900_31213" style="mask-type:luminance" maskUnits="userSpaceOnUse" x="10" y="71" width="21" height="9">
<path d="M10.9359 71.8398L21.7995 74.5612V74.9344L22.7139 74.9593V74.5301L30.7474 73.2612C30.7474 73.2612 31.0988 73.1803 30.8002 73.5722C30.5016 73.9641 25.3295 78.48 25.3295 78.48L19.5882 79.0709L10.8799 77.1582L10.9359 71.8398Z" fill="white"/>
</mask>
<g mask="url(#mask0_4900_31213)">
<path opacity="0.3" d="M21.7993 74.9407V74.5612L10.9357 71.8398L10.8828 77.1768L19.588 79.0896L19.7436 79.074L22.0419 74.9469L21.7993 74.9407Z" fill="black"/>
</g>
<path d="M10.9359 71.8379L21.7995 74.5593V74.9325L22.7139 74.9574V74.5282L30.7473 73.2592C30.7473 73.2592 31.0988 73.1784 30.8002 73.5702C30.5016 73.9621 25.3295 78.478 25.3295 78.478L19.5882 79.069L10.8799 77.1562L10.9359 71.8379Z" stroke="#263238" stroke-linecap="round" stroke-linejoin="round"/>
<path d="M21.7995 74.9395L19.3984 79.0884L19.8587 79.1164L22.7138 74.9643L21.7995 74.9395Z" fill="#65A772" stroke="#263238" stroke-linecap="round" stroke-linejoin="round"/>
<path d="M21.4141 100.233C21.4141 100.233 20.8916 101.328 20.195 101.829C19.4983 102.33 18.6088 102.566 17.9059 103.048C17.5241 103.306 17.1585 103.588 16.8112 103.891L16.5312 102.939L21.24 99.6953L25.1432 100.168L25.7465 101.076C25.3105 100.929 24.8564 100.841 24.3967 100.815C23.5601 100.756 22.6924 100.974 22.1419 100.84C21.9833 100.799 21.8357 100.723 21.7099 100.618C21.584 100.513 21.483 100.382 21.4141 100.233Z" fill="#AAD0B1" stroke="#263238" stroke-linecap="round" stroke-linejoin="round"/>
<path d="M16.64 103.701C17.5346 103.028 18.5042 102.461 19.5293 102.012C20.3219 101.622 20.9786 101.002 21.4141 100.233C22.0103 100.544 22.6913 100.653 23.3548 100.544C24.1359 100.437 24.9294 100.46 25.7029 100.613L25.3204 100.031L21.2399 99.9688L16.4316 103.194L16.64 103.701Z" fill="#AAD0B1" stroke="#263238" stroke-linecap="round" stroke-linejoin="round"/>
<path d="M16.4413 103.52C17.1219 102.906 17.9065 102.419 18.7583 102.08C20.1268 101.583 21.377 100.242 21.377 100.242C22.0179 100.493 22.7161 100.558 23.3924 100.432C24.1268 100.26 24.8852 100.215 25.6348 100.298C25.5407 100.105 25.5112 99.8871 25.5508 99.6761L21.178 99.502L16.292 103.038L16.4413 103.52Z" fill="#AAD0B1" stroke="#263238" stroke-linecap="round" stroke-linejoin="round"/>
<path d="M16.2637 103.139L21.103 99.9786L21.0377 99.7267L21.4825 99.5961L21.554 99.8853L25.6842 99.7609C25.6842 99.7609 25.8677 99.7609 25.6562 99.537C25.4448 99.3131 22.1729 96.8965 22.1729 96.8965L19.2712 97.2075L15.3462 99.5557L16.2637 103.139Z" fill="#65A772"/>
<mask id="mask1_4900_31213" style="mask-type:luminance" maskUnits="userSpaceOnUse" x="15" y="96" width="11" height="8">
<path d="M16.2632 103.14L21.1025 99.9806L21.0372 99.7287L21.482 99.598L21.5535 99.8873L25.6838 99.7629C25.6838 99.7629 25.8672 99.7629 25.6558 99.5389C25.4443 99.315 22.1724 96.8984 22.1724 96.8984L19.2707 97.2095L15.3457 99.5576L16.2632 103.14Z" fill="white"/>
</mask>
<g mask="url(#mask1_4900_31213)">
<path opacity="0.3" d="M21.05 99.7273L21.1153 99.9792L16.2759 103.139L15.3491 99.5469L19.2741 97.1988L19.3519 97.1895L21.1682 99.6931L21.05 99.7273Z" fill="black"/>
</g>
<path d="M16.2637 103.139L21.103 99.9786L21.0377 99.7267L21.4825 99.5961L21.554 99.8853L25.6842 99.7609C25.6842 99.7609 25.8677 99.7609 25.6562 99.537C25.4448 99.3131 22.1729 96.8965 22.1729 96.8965L19.2712 97.2075L15.3462 99.5557L16.2637 103.139Z" stroke="#263238" stroke-linecap="round" stroke-linejoin="round"/>
<path d="M21.0502 99.7279L19.1841 97.2211L19.4018 97.1465L21.4949 99.5973L21.0502 99.7279Z" fill="#65A772" stroke="#263238" stroke-linecap="round" stroke-linejoin="round"/>
<path d="M93.774 66.7559L102.557 75.6509L83.8029 80.935L82.562 72.0182L93.774 66.7559Z" fill="#65A772" stroke="#263238" stroke-linecap="round" stroke-linejoin="round"/>
<path d="M101.546 76.9363L82.1484 82.6372L83.7128 72.3862L93.5004 68.0195L101.546 76.9363Z" fill="#AAD0B1" stroke="#263238" stroke-linecap="round" stroke-linejoin="round"/>
<path d="M93.9605 68.5723L101.176 77.9027L82.9756 83.1868L85.0905 71.9717L93.9605 68.5723Z" fill="#AAD0B1"/>
<mask id="mask2_4900_31213" style="mask-type:luminance" maskUnits="userSpaceOnUse" x="82" y="68" width="20" height="16">
<path d="M93.9601 68.5723L101.176 77.9027L82.9751 83.1868L85.09 71.9717L93.9601 68.5723Z" fill="white"/>
</mask>
<g mask="url(#mask2_4900_31213)">
<path opacity="0.17" d="M93.9601 68.5723L101.176 77.9027L82.9751 83.1868L85.09 71.9717L93.9601 68.5723Z" fill="black"/>
</g>
<path d="M93.9605 68.5723L101.176 77.9027L82.9756 83.1868L85.0905 71.9717L93.9605 68.5723Z" stroke="#263238" stroke-linecap="round" stroke-linejoin="round"/>
<path d="M93.9609 68.5723L90.6517 80.0611L77.7354 83.9706L82.6991 73.3961L93.9609 68.5723Z" fill="#AAD0B1" stroke="#263238" stroke-linecap="round" stroke-linejoin="round"/>
<path d="M89.7339 79.1446L77.2778 83.3277L76.9077 81.5798L88.4463 77.4434L89.7339 79.1446Z" fill="#AAD0B1" stroke="#263238" stroke-linecap="round" stroke-linejoin="round"/>
<path d="M93.6402 67.0078L101.913 75.6042L101.546 76.9354L93.9605 68.5722L89.7339 79.1436L88.4463 77.4423L93.6402 67.0078Z" fill="#AAD0B1" stroke="#263238" stroke-linecap="round" stroke-linejoin="round"/>
<path d="M93.7739 66.7559L88.4929 77.7657L76.3105 81.9022L82.5619 72.0182L93.7739 66.7559Z" fill="#65A772"/>
<mask id="mask3_4900_31213" style="mask-type:luminance" maskUnits="userSpaceOnUse" x="76" y="66" width="18" height="16">
<path d="M93.7739 66.7559L88.4929 77.7657L76.3105 81.9022L82.5619 72.0182L93.7739 66.7559Z" fill="white"/>
</mask>
<g mask="url(#mask3_4900_31213)">
<path opacity="0.3" d="M93.7739 66.7559L88.4929 77.7657L76.3105 81.9022L82.5619 72.0182L93.7739 66.7559Z" fill="black"/>
</g>
<path d="M93.7739 66.7559L88.4929 77.7657L76.3105 81.9022L82.5619 72.0182L93.7739 66.7559Z" stroke="#263238" stroke-linecap="round" stroke-linejoin="round"/>
<path d="M82.0581 73.0329L91.8581 68.5605" stroke="#263238" stroke-linecap="round" stroke-linejoin="round"/>
<path d="M52.9695 98.7199L61.9639 87.654L43.4089 86.7832L41.9316 96.0794L52.9695 98.7199Z" fill="#65A772" stroke="#263238" stroke-linecap="round" stroke-linejoin="round"/>
<path d="M60.9901 86.5961L41.8037 85.4609L43.0851 95.4352L52.7296 97.5127L60.9901 86.5961Z" fill="#AAD0B1" stroke="#263238" stroke-linecap="round" stroke-linejoin="round"/>
<path d="M53.2024 96.8439L60.6481 85.7065L42.6436 84.7051L44.4505 95.5221L53.2024 96.8439Z" fill="#AAD0B1"/>
<mask id="mask4_4900_31213" style="mask-type:luminance" maskUnits="userSpaceOnUse" x="42" y="84" width="19" height="13">
<path d="M53.2029 96.842L60.6485 85.7046L42.644 84.7031L44.451 95.5202L53.2029 96.842Z" fill="white"/>
</mask>
<g mask="url(#mask4_4900_31213)">
<path opacity="0.17" d="M53.2029 96.842L60.6485 85.7046L42.644 84.7031L44.451 95.5202L53.2029 96.842Z" fill="black"/>
</g>
<path d="M53.2024 96.8439L60.6481 85.7065L42.6436 84.7051L44.4505 95.5221L53.2024 96.8439Z" stroke="#263238" stroke-linecap="round" stroke-linejoin="round"/>
<path d="M53.2025 96.8446L50.2137 86.0337L37.4404 85.166L42.1056 94.655L53.2025 96.8446Z" fill="#AAD0B1" stroke="#263238" stroke-linecap="round" stroke-linejoin="round"/>
<path d="M49.2717 87.1803L36.9649 85.9238L36.5513 87.7744L47.9437 89.2019L49.2717 87.1803Z" fill="#AAD0B1" stroke="#263238" stroke-linecap="round" stroke-linejoin="round"/>
<path d="M52.8387 98.4982L61.32 87.8522L60.9903 86.5957L53.2026 96.8436L49.2714 87.1804L47.9434 89.202L52.8387 98.4982Z" fill="#AAD0B1" stroke="#263238" stroke-linecap="round" stroke-linejoin="round"/>
<path d="M52.9695 98.7199L47.9964 88.8669L35.9634 87.5918L41.9317 96.0794L52.9695 98.7199Z" fill="#65A772"/>
<mask id="mask5_4900_31213" style="mask-type:luminance" maskUnits="userSpaceOnUse" x="35" y="87" width="18" height="12">
<path d="M52.969 98.7199L47.996 88.8669L35.9629 87.5918L41.9312 96.0794L52.969 98.7199Z" fill="white"/>
</mask>
<g mask="url(#mask5_4900_31213)">
<path opacity="0.3" d="M52.969 98.7199L47.996 88.8669L35.9629 87.5918L41.9312 96.0794L52.969 98.7199Z" fill="black"/>
</g>
<path d="M52.9695 98.7199L47.9964 88.8669L35.9634 87.5918L41.9317 96.0794L52.9695 98.7199Z" stroke="#263238" stroke-linecap="round" stroke-linejoin="round"/>
<path d="M41.0137 94.8535L50.8137 96.9155" stroke="#263238" stroke-linecap="round" stroke-linejoin="round"/>
<path d="M74.9012 42.3194C74.9012 42.3194 68.3699 36.5906 61.6023 34.6405C54.8347 32.6904 47.0469 33.6079 40.2824 31.7761C33.5179 29.9442 29.624 27.4219 29.624 27.4219L29.2788 33.496L74.6866 45.7624L105.751 37.1659L108.845 30.8617C108.845 30.8617 105.063 32.8086 98.2987 34.4135C91.5341 36.0183 83.9548 36.0152 79.7095 37.6107C75.4641 39.2062 74.9012 42.3194 74.9012 42.3194Z" fill="#AAD0B1" stroke="#263238" stroke-linecap="round" stroke-linejoin="round"/>
<path d="M28.5916 28.793C28.5916 28.793 36.1679 33.3804 53.2363 34.9853C64.4794 36.0396 74.9014 42.319 74.9014 42.319C79.4682 39.3991 84.7256 37.7382 90.141 37.5045C99.0826 37.1624 109.284 33.6075 109.284 33.6075L107.34 37.6102L73.9839 44.1415L27.9043 32.1053L28.5916 28.793Z" fill="#AAD0B1" stroke="#263238" stroke-linecap="round" stroke-linejoin="round"/>
<path d="M27.3317 30.1719C33.78 33.0843 40.6816 34.8645 47.7341 35.4342C59.9973 36.3517 74.5558 42.3107 74.5558 42.3107C74.5558 42.3107 82.2347 38.1867 90.7285 38.1867C97.0371 38.1329 103.314 37.2854 109.411 35.6644C109.221 36.2979 109.174 36.9656 109.273 37.6195C109.372 38.2733 109.615 38.8972 109.983 39.4463L74.4407 47.0195L27.1016 33.2571L27.3317 30.1719Z" fill="#AAD0B1" stroke="#263238" stroke-linecap="round" stroke-linejoin="round"/>
<path d="M27.562 32.8914L72.9512 44.2683V45.8732L76.8482 45.9882V44.1408L111.007 38.754C111.007 38.754 112.496 38.4088 111.237 40.1287C109.977 41.8486 87.9668 60.9915 87.9668 60.9915L63.5524 63.5139L26.5264 55.3871L26.7472 33.5197C26.7479 33.4205 26.7711 33.3228 26.8152 33.234C26.8593 33.1452 26.923 33.0675 27.0015 33.007C27.08 32.9464 27.1713 32.9046 27.2684 32.8845C27.3656 32.8645 27.466 32.8669 27.562 32.8914Z" fill="#65A772"/>
<mask id="mask6_4900_31213" style="mask-type:luminance" maskUnits="userSpaceOnUse" x="26" y="32" width="86" height="32">
<path d="M27.562 32.8934L72.9512 44.2703V45.8751L76.8482 45.9902V44.1428L111.007 38.756C111.007 38.756 112.496 38.4108 111.237 40.1307C109.977 41.8506 87.9668 60.9935 87.9668 60.9935L63.5524 63.5158L26.5264 55.389L26.7472 33.5216C26.7479 33.4225 26.7711 33.3248 26.8152 33.2359C26.8593 33.1471 26.923 33.0695 27.0015 33.0089C27.08 32.9484 27.1713 32.9065 27.2684 32.8865C27.3656 32.8665 27.466 32.8688 27.562 32.8934Z" fill="white"/>
</mask>
<g mask="url(#mask6_4900_31213)">
<path opacity="0.3" d="M72.9515 45.8741V44.2693L26.7568 32.6934L26.5298 55.388L63.5527 63.5273L64.2151 63.4588L73.9872 45.9052L72.9515 45.8741Z" fill="black"/>
</g>
<path d="M27.562 32.8914L72.9512 44.2683V45.8732L76.8482 45.9882V44.1408L111.007 38.754C111.007 38.754 112.496 38.4088 111.237 40.1287C109.977 41.8486 87.9668 60.9915 87.9668 60.9915L63.5524 63.5139L26.5264 55.3871L26.7472 33.5197C26.7479 33.4205 26.7711 33.3228 26.8152 33.234C26.8593 33.1452 26.923 33.0675 27.0015 33.007C27.08 32.9464 27.1713 32.9046 27.2684 32.8845C27.3656 32.8645 27.466 32.8669 27.562 32.8914Z" stroke="#263238" stroke-linecap="round" stroke-linejoin="round"/>
<path d="M72.9517 45.875L62.7505 63.5281L64.7005 63.6401L76.8487 45.9901L72.9517 45.875Z" fill="#65A772" stroke="#263238" stroke-linecap="round" stroke-linejoin="round"/>
<path d="M106.998 39.4773C106.998 39.4773 110.043 40.0464 109.408 42.0774L111.237 40.1366C111.237 40.1366 112.074 39.0947 111.691 38.8926C111.309 38.6904 106.998 39.4773 106.998 39.4773Z" fill="#263238"/>
<path d="M31.7704 34.0458C31.7704 34.0458 27.4628 35.237 26.7942 38.456L26.7568 33.5202C26.7568 33.5202 26.8875 32.7769 27.5686 32.8981C28.2497 33.0194 31.7704 34.0458 31.7704 34.0458Z" fill="#263238"/>
<path d="M26.5702 53.877L28.7349 55.939L26.5298 55.3885L26.5702 53.877Z" fill="#263238"/>
<path d="M86.4092 61.1384L89.3451 59.6953L87.7994 61.0358L86.4092 61.1384Z" fill="#263238"/>
<path d="M95.8824 33.1875C95.8824 33.1875 96.2152 32.6277 96.3894 33.0506C96.5635 33.4736 97.7298 34.867 97.0301 35.0909C96.3303 35.3148 95.6367 33.6229 95.6367 33.6229L95.8824 33.1875Z" fill="#AAD0B1" stroke="#263238" stroke-linecap="round" stroke-linejoin="round"/>
<path d="M94.9058 33.2812C94.9058 33.2812 95.2386 32.7214 95.4128 33.1444C95.587 33.5674 96.7564 34.9607 96.0535 35.1846C95.3506 35.4086 94.6602 33.7167 94.6602 33.7167L94.9058 33.2812Z" fill="#AAD0B1" stroke="#263238" stroke-linecap="round" stroke-linejoin="round"/>
<path d="M93.9231 33.4025C93.9231 33.4025 94.3243 32.7804 94.5233 33.2439C94.7224 33.7073 96.0784 35.2468 95.2573 35.5049C94.4363 35.7631 93.6245 33.8877 93.6245 33.8877L93.9231 33.4025Z" fill="#AAD0B1" stroke="#263238" stroke-linecap="round" stroke-linejoin="round"/>
<path d="M93.0986 33.7227L91.7021 35.5701L93.6553 35.2591L93.0986 33.7227Z" fill="#AAD0B1" stroke="#263238" stroke-linecap="round" stroke-linejoin="round"/>
<path d="M93.0984 33.7228C93.0984 33.7228 93.4965 33.1008 93.6986 33.5642C93.9008 34.0276 95.2537 35.564 94.4326 35.8221C93.6115 36.0803 92.7998 34.208 92.7998 34.208L93.0984 33.7228Z" fill="#AAD0B1" stroke="#263238" stroke-linecap="round" stroke-linejoin="round"/>
<path d="M36.4389 50.3338L38.4294 50.0228L36.4389 49.7118C36.2637 49.6852 36.1015 49.6033 35.9761 49.4779C35.8508 49.3525 35.7688 49.1904 35.7423 49.0151L35.4313 47.0215L35.1203 49.0151C35.0939 49.1899 35.0124 49.3518 34.8876 49.4771C34.7629 49.6024 34.6014 49.6846 34.4267 49.7118L32.4331 50.0228L34.4267 50.3338C34.6008 50.3623 34.7616 50.445 34.8861 50.57C35.0106 50.6951 35.0925 50.8562 35.1203 51.0305L35.4313 53.0241L35.7423 51.0305C35.7702 50.8557 35.8526 50.6943 35.9777 50.5692C36.1028 50.4441 36.2642 50.3617 36.4389 50.3338Z" fill="#AAD0B1"/>
<path d="M21.57 63.8377L23.5636 63.5267L21.57 63.2157C21.3955 63.1873 21.2343 63.1047 21.1093 62.9797C20.9842 62.8547 20.9017 62.6935 20.8733 62.519L20.5623 60.5254L20.2513 62.519C20.2243 62.6941 20.1422 62.856 20.0169 62.9813C19.8916 63.1065 19.7297 63.1886 19.5546 63.2157L17.561 63.5267L19.5546 63.8377C19.7297 63.8647 19.8916 63.9468 20.0169 64.0721C20.1422 64.1973 20.2243 64.3593 20.2513 64.5344L20.5623 66.528L20.8733 64.5344C20.9017 64.3598 20.9842 64.1987 21.1093 64.0736C21.2343 63.9486 21.3955 63.8661 21.57 63.8377Z" fill="#65A772"/>
<path opacity="0.5" d="M21.57 63.8377L23.5636 63.5267L21.57 63.2157C21.3955 63.1873 21.2343 63.1047 21.1093 62.9797C20.9842 62.8547 20.9017 62.6935 20.8733 62.519L20.5623 60.5254L20.2513 62.519C20.2243 62.6941 20.1422 62.856 20.0169 62.9813C19.8916 63.1065 19.7297 63.1886 19.5546 63.2157L17.561 63.5267L19.5546 63.8377C19.7297 63.8647 19.8916 63.9468 20.0169 64.0721C20.1422 64.1973 20.2243 64.3593 20.2513 64.5344L20.5623 66.528L20.8733 64.5344C20.9017 64.3598 20.9842 64.1987 21.1093 64.0736C21.2343 63.9486 21.3955 63.8661 21.57 63.8377Z" fill="#AAD0B1"/>
<path d="M71.2072 72.1529L73.2008 71.8419L71.2072 71.5309C71.0326 71.5041 70.871 71.4224 70.7457 71.2978C70.6205 71.1731 70.5382 71.0119 70.5105 70.8373L70.1995 68.8438L69.8885 70.8373C69.8609 71.0119 69.7785 71.1731 69.6533 71.2978C69.5281 71.4224 69.3665 71.5041 69.1918 71.5309L67.1982 71.8419L69.1918 72.1529C69.3665 72.1798 69.5281 72.2614 69.6533 72.3861C69.7785 72.5107 69.8609 72.672 69.8885 72.8465L70.1995 74.8401L70.5105 72.8465C70.5382 72.672 70.6205 72.5107 70.7457 72.3861C70.871 72.2614 71.0326 72.1798 71.2072 72.1529Z" fill="#65A772"/>
<path opacity="0.5" d="M71.2072 72.1529L73.2008 71.8419L71.2072 71.5309C71.0326 71.5041 70.871 71.4224 70.7457 71.2978C70.6205 71.1731 70.5382 71.0119 70.5105 70.8373L70.1995 68.8438L69.8885 70.8373C69.8609 71.0119 69.7785 71.1731 69.6533 71.2978C69.5281 71.4224 69.3665 71.5041 69.1918 71.5309L67.1982 71.8419L69.1918 72.1529C69.3665 72.1798 69.5281 72.2614 69.6533 72.3861C69.7785 72.5107 69.8609 72.672 69.8885 72.8465L70.1995 74.8401L70.5105 72.8465C70.5382 72.672 70.6205 72.5107 70.7457 72.3861C70.871 72.2614 71.0326 72.1798 71.2072 72.1529Z" fill="#AAD0B1"/>
<path d="M19.0191 53.2337L20.3378 53.0253L19.0191 52.8169C18.9034 52.7991 18.7964 52.7449 18.7137 52.6621C18.6309 52.5793 18.5767 52.4723 18.5588 52.3566L18.3536 51.041L18.1452 52.3566C18.1274 52.4723 18.0732 52.5793 17.9904 52.6621C17.9076 52.7449 17.8006 52.7991 17.6849 52.8169L16.3662 53.0253L17.6849 53.2337C17.8006 53.2515 17.9076 53.3057 17.9904 53.3885C18.0732 53.4713 18.1274 53.5783 18.1452 53.694L18.3536 55.0096L18.5588 53.694C18.5767 53.5783 18.6309 53.4713 18.7137 53.3885C18.7964 53.3057 18.9034 53.2515 19.0191 53.2337Z" fill="#65A772"/>
<path opacity="0.5" d="M19.0191 53.2337L20.3378 53.0253L19.0191 52.8169C18.9034 52.7991 18.7964 52.7449 18.7137 52.6621C18.6309 52.5793 18.5767 52.4723 18.5588 52.3566L18.3536 51.041L18.1452 52.3566C18.1274 52.4723 18.0732 52.5793 17.9904 52.6621C17.9076 52.7449 17.8006 52.7991 17.6849 52.8169L16.3662 53.0253L17.6849 53.2337C17.8006 53.2515 17.9076 53.3057 17.9904 53.3885C18.0732 53.4713 18.1274 53.5783 18.1452 53.694L18.3536 55.0096L18.5588 53.694C18.5767 53.5783 18.6309 53.4713 18.7137 53.3885C18.7964 53.3057 18.9034 53.2515 19.0191 53.2337Z" fill="#AAD0B1"/>
<path d="M104.567 56.1438L105.885 55.9385L104.567 55.7302C104.451 55.7119 104.344 55.6575 104.262 55.5748C104.179 55.4921 104.124 55.3854 104.106 55.2699L103.898 53.9512L103.693 55.2699C103.674 55.3854 103.62 55.4921 103.537 55.5748C103.455 55.6575 103.348 55.7119 103.232 55.7302L101.914 55.9385L103.232 56.1438C103.348 56.1621 103.455 56.2165 103.537 56.2992C103.62 56.3819 103.674 56.4886 103.693 56.6041L103.898 57.9228L104.106 56.6041C104.124 56.4886 104.179 56.3819 104.262 56.2992C104.344 56.2165 104.451 56.1621 104.567 56.1438Z" fill="#65A772"/>
<path opacity="0.5" d="M104.567 56.1438L105.885 55.9385L104.567 55.7302C104.451 55.7119 104.344 55.6575 104.262 55.5748C104.179 55.4921 104.124 55.3854 104.106 55.2699L103.898 53.9512L103.693 55.2699C103.674 55.3854 103.62 55.4921 103.537 55.5748C103.455 55.6575 103.348 55.7119 103.232 55.7302L101.914 55.9385L103.232 56.1438C103.348 56.1621 103.455 56.2165 103.537 56.2992C103.62 56.3819 103.674 56.4886 103.693 56.6041L103.898 57.9228L104.106 56.6041C104.124 56.4886 104.179 56.3819 104.262 56.2992C104.344 56.2165 104.451 56.1621 104.567 56.1438Z" fill="#AAD0B1"/>
<path d="M44.3014 45.1843L45.5921 44.9821L44.3014 44.7799C44.1882 44.7622 44.0835 44.709 44.0024 44.6279C43.9214 44.5469 43.8682 44.4422 43.8504 44.329L43.6452 43.0352L43.443 44.329C43.4248 44.442 43.3715 44.5465 43.2905 44.6274C43.2095 44.7084 43.1051 44.7618 42.9921 44.7799L41.6982 44.9821L42.9921 45.1843C43.1051 45.2024 43.2095 45.2558 43.2905 45.3368C43.3715 45.4177 43.4248 45.5222 43.443 45.6352L43.6327 46.9415L43.838 45.6477C43.8539 45.5304 43.9079 45.4215 43.9916 45.3378C44.0753 45.2541 44.1841 45.2002 44.3014 45.1843Z" fill="#AAD0B1"/>
<path d="M87.063 57.955L88.3568 57.7497L87.063 57.5475C86.9499 57.5293 86.8455 57.476 86.7645 57.395C86.6835 57.314 86.6302 57.2096 86.612 57.0966L86.4098 55.8027L86.2077 57.0966C86.1895 57.2096 86.1361 57.314 86.0552 57.395C85.9742 57.476 85.8698 57.5293 85.7567 57.5475L84.4629 57.7497L85.7567 57.955C85.8699 57.9727 85.9746 58.0259 86.0557 58.1069C86.1367 58.188 86.19 58.2927 86.2077 58.4059L86.4098 59.6966L86.612 58.4059C86.6297 58.2927 86.6829 58.188 86.764 58.1069C86.845 58.0259 86.9497 57.9727 87.063 57.955Z" fill="#AAD0B1"/>
</svg>
