<svg width="120" height="90" viewBox="0 0 120 90" fill="none" xmlns="http://www.w3.org/2000/svg">
<path d="M120 78.5762H0V78.6362H120V78.5762Z" fill="#EBEBEB"/>
<path d="M107.976 80.8613H86.1602V80.9213H107.976V80.8613Z" fill="#EBEBEB"/>
<path d="M79.4926 80.2109H73.519V80.2709H79.4926V80.2109Z" fill="#EBEBEB"/>
<path d="M93.1464 83.0898H83.8848V83.1498H93.1464V83.0898Z" fill="#EBEBEB"/>
<path d="M18.0239 82.6875H12.5903V82.7475H18.0239V82.6875Z" fill="#EBEBEB"/>
<path d="M26.6138 82.6875H20.1602V82.7475H26.6138V82.6875Z" fill="#EBEBEB"/>
<path d="M54.036 81.6738H42.7944V81.7338H54.036V81.6738Z" fill="#EBEBEB"/>
<path d="M56.88 67.872H10.5384C10.1754 67.8714 9.82742 67.7267 9.57094 67.4698C9.31446 67.2128 9.17041 66.8646 9.17041 66.5016V1.3584C9.17357 0.997446 9.31902 0.652315 9.57516 0.397972C9.8313 0.14363 10.1774 0.000618333 10.5384 0H56.88C57.2435 0 57.592 0.144381 57.849 0.401381C58.106 0.658381 58.2504 1.00695 58.2504 1.3704V66.5016C58.2504 66.8651 58.106 67.2136 57.849 67.4706C57.592 67.7276 57.2435 67.872 56.88 67.872ZM10.5384 0.0480002C10.1913 0.0486359 9.8586 0.186976 9.61337 0.432654C9.36814 0.678333 9.23041 1.01128 9.23041 1.3584V66.5016C9.23041 66.8487 9.36814 67.1817 9.61337 67.4273C9.8586 67.673 10.1913 67.8114 10.5384 67.812H56.88C57.2274 67.8114 57.5603 67.6731 57.8059 67.4275C58.0515 67.1819 58.1898 66.8489 58.1904 66.5016V1.3584C58.1898 1.01106 58.0515 0.678118 57.8059 0.432508C57.5603 0.186898 57.2274 0.0486346 56.88 0.0480002H10.5384Z" fill="#EBEBEB"/>
<path d="M108.794 67.872H62.4505C62.0872 67.8714 61.739 67.7268 61.4822 67.4699C61.2253 67.2131 61.0807 66.8649 61.0801 66.5016V1.3584C61.0839 0.997227 61.2298 0.652098 61.4864 0.397822C61.7429 0.143546 62.0893 0.00061159 62.4505 0H108.794C109.155 0.00124908 109.501 0.14454 109.756 0.398815C110.012 0.65309 110.157 0.99786 110.16 1.3584V66.5016C110.16 66.8642 110.016 67.2121 109.76 67.4689C109.504 67.7258 109.157 67.8707 108.794 67.872ZM62.4505 0.0480002C62.1031 0.0486346 61.7702 0.186898 61.5246 0.432508C61.279 0.678118 61.1407 1.01106 61.1401 1.3584V66.5016C61.1407 66.8489 61.279 67.1819 61.5246 67.4275C61.7702 67.6731 62.1031 67.8114 62.4505 67.812H108.794C109.142 67.8114 109.475 67.6731 109.72 67.4275C109.966 67.1819 110.104 66.8489 110.105 66.5016V1.3584C110.104 1.01106 109.966 0.678118 109.72 0.432508C109.475 0.186898 109.142 0.0486346 108.794 0.0480002H62.4505Z" fill="#EBEBEB"/>
<path d="M12.5878 78.5742H41.2822L41.2822 15.1158H12.5878L12.5878 78.5742Z" fill="#C5E0CA"/>
<path d="M12.5902 78.5742H39.9238L39.9238 15.1158H12.5902L12.5902 78.5742Z" fill="#AAD0B1"/>
<path d="M38.4839 77.137L38.4839 16.5586H14.0303L14.0303 77.137H38.4839Z" fill="#C5E0CA"/>
<path d="M21.9313 45.1195H16.9465C16.7767 45.1189 16.6141 45.0511 16.494 44.9311C16.374 44.8111 16.3063 44.6484 16.3057 44.4787C16.3063 44.3089 16.374 44.1463 16.494 44.0263C16.6141 43.9062 16.7767 43.8385 16.9465 43.8379H21.9313C22.101 43.8385 22.2636 43.9062 22.3837 44.0263C22.5037 44.1463 22.5714 44.3089 22.5721 44.4787C22.5714 44.6484 22.5037 44.8111 22.3837 44.9311C22.2636 45.0511 22.101 45.1189 21.9313 45.1195Z" fill="white"/>
<path d="M14.4048 77.137L14.4048 16.5586H14.0304L14.0304 77.137H14.4048Z" fill="#C5E0CA"/>
<path d="M54.727 77.3711H58.999V58.8431H54.727V77.3711Z" fill="#C5E0CA"/>
<path d="M37.111 78.5469H58.1782V77.3733H37.111V78.5469Z" fill="#C5E0CA"/>
<path d="M54.7273 58.8457H36.2905V77.3737H54.7273V58.8457Z" fill="#AAD0B1"/>
<path d="M53.0451 61.125H37.9683V67.2018H53.0451V61.125Z" fill="#C5E0CA"/>
<path d="M53.0451 69.0137H37.9683V75.0905H53.0451V69.0137Z" fill="#C5E0CA"/>
<path d="M43.8146 61.6375H47.201C47.3109 61.6369 47.4162 61.5929 47.4939 61.5152C47.5716 61.4375 47.6156 61.3322 47.6162 61.2223C47.6162 61.1119 47.5725 61.0061 47.4948 60.9278C47.417 60.8496 47.3114 60.8053 47.201 60.8047H43.8146C43.7043 60.8053 43.5987 60.8496 43.5209 60.9278C43.4431 61.0061 43.3994 61.1119 43.3994 61.2223C43.4 61.3322 43.444 61.4375 43.5217 61.5152C43.5994 61.5929 43.7047 61.6369 43.8146 61.6375Z" fill="#AAD0B1"/>
<path d="M43.8146 69.5283H47.201C47.3097 69.5277 47.4139 69.4847 47.4914 69.4085C47.5689 69.3324 47.6137 69.2289 47.6162 69.1203C47.6156 69.0104 47.5716 68.9051 47.4939 68.8274C47.4162 68.7497 47.3109 68.7057 47.201 68.7051H43.8146C43.7047 68.7057 43.5994 68.7497 43.5217 68.8274C43.444 68.9051 43.4 69.0104 43.3994 69.1203C43.4019 69.2289 43.4467 69.3324 43.5242 69.4085C43.6017 69.4847 43.7059 69.5277 43.8146 69.5283Z" fill="#AAD0B1"/>
<path d="M46.913 58.4807C46.8292 58.4801 46.749 58.4465 46.6897 58.3872C46.6304 58.3279 46.5968 58.2477 46.5962 58.1639V48.5375C46.5962 48.4535 46.6296 48.3729 46.689 48.3135C46.7484 48.2541 46.829 48.2207 46.913 48.2207C46.9968 48.2213 47.077 48.2549 47.1363 48.3142C47.1956 48.3735 47.2292 48.4537 47.2298 48.5375V58.1639C47.2292 58.2477 47.1956 58.3279 47.1363 58.3872C47.077 58.4465 46.9968 58.4801 46.913 58.4807Z" fill="#AAD0B1"/>
<path d="M49.8767 58.1074H43.9487V58.8538H49.8767V58.1074Z" fill="#C5E0CA"/>
<path d="M48.5544 52.7208C48.5128 52.7208 48.4729 52.7044 48.4432 52.6752C48.4136 52.646 48.3966 52.6064 48.396 52.5648V47.76C48.3966 47.7181 48.4135 47.6782 48.4431 47.6486C48.4726 47.6191 48.5126 47.6022 48.5544 47.6016C48.5962 47.6022 48.6361 47.6191 48.6657 47.6486C48.6953 47.6782 48.7122 47.7181 48.7128 47.76V52.56C48.7131 52.581 48.7093 52.6018 48.7014 52.6213C48.6936 52.6408 48.682 52.6586 48.6673 52.6735C48.6525 52.6885 48.6349 52.7004 48.6156 52.7085C48.5962 52.7166 48.5754 52.7208 48.5544 52.7208Z" fill="#C5E0CA"/>
<path d="M42.3022 49.4169C42.3022 49.4169 42.4198 44.8809 46.9126 44.8809C51.4054 44.8809 51.5206 49.4121 51.5206 49.4121L42.3022 49.4169Z" fill="#C5E0CA"/>
<path d="M81.1943 55.8242C81.3215 55.8242 81.4511 55.8242 81.5807 55.8362C82.9081 55.9321 84.1563 56.5045 85.0952 57.4478C86.0341 58.3911 86.6005 59.6419 86.6903 60.9698C86.7282 61.5731 86.6682 62.1785 86.5127 62.7626C85.911 65.1055 85.6205 67.5175 85.6487 69.9362V76.9778C85.649 77.0998 85.6251 77.2206 85.5786 77.3333C85.532 77.446 85.4635 77.5483 85.3772 77.6344C85.2908 77.7206 85.1883 77.7887 85.0755 77.835C84.9627 77.8813 84.8418 77.9049 84.7199 77.9042H62.3687V55.8242H81.1943Z" fill="#C5E0CA"/>
<path d="M56.8608 61.3327C56.8632 60.5498 57.0325 59.7764 57.3575 59.0641C57.6825 58.3518 58.1556 57.717 58.7454 57.2021C59.3352 56.6872 60.028 56.3039 60.7776 56.078C61.5272 55.852 62.3164 55.7886 63.0925 55.8918C63.8686 55.9951 64.6137 56.2627 65.2782 56.6767C65.9426 57.0908 66.5112 57.6418 66.9458 58.293C67.3804 58.9442 67.6711 59.6807 67.7986 60.4531C67.926 61.2256 67.8872 62.0164 67.6848 62.7727C67.0851 65.1159 66.7955 67.5277 66.8232 69.9463V76.9879C66.8232 77.1095 66.7993 77.2298 66.7527 77.3421C66.7061 77.4543 66.6378 77.5563 66.5518 77.6421C66.4657 77.728 66.3636 77.796 66.2512 77.8423C66.1388 77.8886 66.0184 77.9122 65.8968 77.9119H58.8384C58.7171 77.9119 58.5969 77.888 58.4848 77.8416C58.3727 77.7952 58.2709 77.7271 58.1851 77.6413C58.0993 77.5555 58.0312 77.4536 57.9848 77.3415C57.9383 77.2294 57.9144 77.1093 57.9144 76.9879V69.5239C57.9348 67.2556 57.6474 64.995 57.06 62.8039C56.9277 62.3247 56.8607 61.8299 56.8608 61.3327Z" fill="#AAD0B1"/>
<path d="M69.9575 77.9043H90.0239V64.4979H69.9575V77.9043Z" fill="#C5E0CA"/>
<path d="M106.608 67.5312H79.7495V46.9705C79.7495 45.8655 80.1885 44.8057 80.9698 44.0244C81.7512 43.243 82.8109 42.8041 83.9159 42.8041H102.442C103.547 42.8041 104.606 43.243 105.388 44.0244C106.169 44.8057 106.608 45.8655 106.608 46.9705V67.5312Z" fill="#E0F0E3"/>
<path d="M101.359 67.5312H74.501V46.7689C74.501 45.7167 74.9189 44.7076 75.6629 43.9636C76.4069 43.2196 77.416 42.8017 78.4682 42.8017H97.3826C98.4347 42.8017 99.4438 43.2196 100.188 43.9636C100.932 44.7076 101.35 45.7167 101.35 46.7689V67.5312H101.359Z" fill="#AAD0B1"/>
<path d="M88.7138 68.7344H70.217C69.8987 68.7344 69.5935 68.6079 69.3684 68.3829C69.1434 68.1579 69.017 67.8526 69.017 67.5344V64.4936C69.017 64.1753 69.1434 63.8701 69.3684 63.645C69.5935 63.42 69.8987 63.2936 70.217 63.2936H88.7138C88.8099 63.2936 88.9021 63.3318 88.97 63.3997C89.038 63.4677 89.0762 63.5599 89.0762 63.656V68.3744C89.0755 68.4701 89.0371 68.5616 88.9692 68.6291C88.9013 68.6965 88.8095 68.7344 88.7138 68.7344Z" fill="#E0F0E3"/>
<path d="M108.588 55.8242C108.715 55.8242 108.842 55.8242 108.974 55.8362C110.301 55.9327 111.549 56.5053 112.487 57.4485C113.426 58.3918 113.992 59.6423 114.081 60.9698C114.122 61.5731 114.062 62.1789 113.904 62.7626C113.302 65.1063 113.011 67.5191 113.04 69.9386V76.9802C113.04 77.1018 113.016 77.2221 112.969 77.3344C112.923 77.4466 112.854 77.5486 112.768 77.6344C112.682 77.7203 112.58 77.7883 112.468 77.8346C112.355 77.8809 112.235 77.9045 112.113 77.9042H89.7598V55.8242H108.588Z" fill="#C5E0CA"/>
<path d="M84.2545 61.3318C84.2448 59.8964 84.7961 58.514 85.7909 57.4792C86.7857 56.4444 88.1453 55.839 89.5799 55.792C91.0146 55.7451 92.4109 56.2603 93.4712 57.2279C94.5315 58.1954 95.1719 59.5388 95.2561 60.9718C95.294 61.5751 95.2341 62.1805 95.0785 62.7646C94.4769 65.1075 94.1864 67.5194 94.2145 69.9382V76.9798C94.2145 77.2249 94.1172 77.4599 93.9439 77.6332C93.7706 77.8064 93.5356 77.9038 93.2905 77.9038H86.2297C86.1084 77.9038 85.9882 77.8799 85.8761 77.8335C85.764 77.787 85.6622 77.719 85.5764 77.6332C85.4905 77.5474 85.4225 77.4455 85.3761 77.3334C85.3296 77.2213 85.3057 77.1011 85.3057 76.9798V69.523C85.3257 67.2548 85.0391 64.9944 84.4537 62.803C84.3214 62.3238 84.2544 61.8289 84.2545 61.3318Z" fill="#AAD0B1"/>
<path d="M62.7599 78.5763H108.194C108.282 78.5763 108.37 78.5589 108.451 78.5251C108.533 78.4913 108.606 78.4418 108.669 78.3793C108.731 78.3169 108.78 78.2428 108.814 78.1613C108.847 78.0798 108.864 77.9924 108.864 77.9043H62.0903C62.09 77.9924 62.1071 78.0798 62.1406 78.1613C62.1741 78.2428 62.2234 78.3169 62.2856 78.3793C62.3478 78.4418 62.4217 78.4913 62.5031 78.5251C62.5845 78.5589 62.6718 78.5763 62.7599 78.5763Z" fill="#E0F0E3"/>
<path d="M89.6686 27.0898L104.282 27.0898V11.1514L89.6686 11.1514V27.0898Z" fill="#E0F0E3"/>
<path d="M88.7977 27.0898L103.791 27.0898V11.1514L88.7977 11.1514V27.0898Z" fill="#AAD0B1"/>
<path d="M102.533 25.8343V12.4062H90.0503V25.8343H102.533Z" fill="white"/>
<path d="M96.2927 15.7246L99.7055 21.6382H92.8799L96.2927 15.7246Z" fill="#AAD0B1"/>
<path d="M69.1681 36.3926H83.7817V20.4542H69.1681V36.3926Z" fill="#E0F0E3"/>
<path d="M68.2968 36.3926H83.2896V20.4542H68.2968V36.3926Z" fill="#AAD0B1"/>
<path d="M82.0317 35.1389V21.7109H69.5493V35.1389H82.0317Z" fill="white"/>
<path d="M74.2657 30.8189L72.7849 28.2533C72.6309 27.9855 72.55 27.6819 72.5503 27.3729C72.5506 27.064 72.6322 26.7606 72.7869 26.4931C72.9415 26.2257 73.1637 26.0036 73.4313 25.8492C73.6989 25.6947 74.0024 25.6134 74.3113 25.6133H77.2801C77.589 25.6137 77.8923 25.6952 78.1598 25.8496C78.4273 26.004 78.6495 26.226 78.8043 26.4933C78.9591 26.7606 79.041 27.0638 79.0418 27.3727C79.0426 27.6815 78.9623 27.9852 78.8089 28.2533L77.3281 30.8189C77.1738 31.0887 76.9509 31.313 76.682 31.4689C76.4131 31.6249 76.1078 31.707 75.7969 31.707C75.4861 31.707 75.1807 31.6249 74.9119 31.4689C74.643 31.313 74.4201 31.0887 74.2657 30.8189Z" fill="#AAD0B1"/>
<path d="M59.9999 89.4141C85.6997 89.4141 106.534 88.1977 106.534 86.6973C106.534 85.1968 85.6997 83.9805 59.9999 83.9805C34.3001 83.9805 13.4663 85.1968 13.4663 86.6973C13.4663 88.1977 34.3001 89.4141 59.9999 89.4141Z" fill="#AAD0B1"/>
<path d="M75.9601 10.6328H20.6353L24.2761 85.9784H79.6009L75.9601 10.6328Z" fill="#65A772"/>
<path opacity="0.2" d="M75.9601 10.6328H20.6353L24.2761 85.9784H79.6009L75.9601 10.6328Z" fill="black"/>
<path d="M76.4713 10.6328H21.1465L24.7897 85.9784H80.1145L76.4713 10.6328Z" fill="#65A772"/>
<path opacity="0.2" d="M73.5502 13.168H23.6758L27.1606 82.5736L70.5286 82.516L77.7358 76.1272L73.5502 13.168Z" fill="black"/>
<path d="M73.9318 13.1641C74.4636 33.9496 76.1422 54.6899 78.9598 75.2905C75.0078 78.0105 71.0758 80.7305 67.1638 83.4505H29.863C26.3423 60.173 24.2759 36.6987 23.6758 13.1641H73.9318Z" fill="white"/>
<path d="M78.9601 75.2904C75.0081 78.0104 71.0761 80.7304 67.1641 83.4504C68.0185 79.8504 68.9089 76.2504 69.8353 72.6504L78.9601 75.2904Z" fill="#EBEBEB"/>
<path d="M37.2003 19.5149C37.2947 22.0557 37.4051 24.5981 37.5315 27.1421H29.9067C29.7787 24.5981 29.6683 22.0557 29.5755 19.5149H37.2003ZM37.9779 18.7109H28.7427C28.8499 21.7877 28.9835 24.8661 29.1435 27.9461H38.3811C38.2211 24.8677 38.0875 21.7893 37.9803 18.7109H37.9779Z" fill="#65A772"/>
<path d="M68.3569 22.3775H42.2401C42.2161 21.8039 42.1945 21.2279 42.1729 20.6543H68.2873C68.3089 21.2279 68.3329 21.8039 68.3569 22.3775Z" fill="#E0F0E3"/>
<path d="M62.8394 26.0025H42.401C42.3746 25.4265 42.3458 24.8529 42.3218 24.2793H62.7578C62.785 24.8537 62.8122 25.4281 62.8394 26.0025Z" fill="#E0F0E3"/>
<path d="M37.9489 34.4524C38.1089 36.9964 38.2873 39.5404 38.4841 42.0844H30.8569C30.6601 39.5404 30.4817 36.9964 30.3217 34.4524H37.9489ZM38.7025 33.6484H29.4673C29.6561 36.7284 29.8713 39.8084 30.1129 42.8884H39.3601C39.1201 39.81 38.9041 36.73 38.7121 33.6484H38.7025Z" fill="#65A772"/>
<path d="M52.6561 37.3194H43.0561C43.0177 36.7434 42.9769 36.1697 42.9409 35.5938H52.5409C52.5769 36.1697 52.6153 36.7434 52.6561 37.3194Z" fill="#E0F0E3"/>
<path d="M61.7449 37.3194H54.6865C54.6481 36.7434 54.6073 36.1697 54.5713 35.5938H61.6297C61.6657 36.1697 61.7041 36.7434 61.7449 37.3194Z" fill="#E0F0E3"/>
<path d="M66.1753 40.9444H43.3201C43.2769 40.3684 43.2361 39.7947 43.1929 39.2188H66.0481C66.0913 39.7947 66.1321 40.3684 66.1753 40.9444Z" fill="#E0F0E3"/>
<path d="M39.0935 49.3978C39.3223 51.9418 39.5687 54.4857 39.8327 57.0297H32.2055C31.9415 54.4857 31.6951 51.9418 31.4663 49.3978H39.0935ZM39.8279 48.5938H30.5903C30.8623 51.6753 31.1599 54.7562 31.4831 57.8362H40.7207C40.4007 54.7546 40.1031 51.6737 39.8279 48.5938Z" fill="#65A772"/>
<path d="M70.584 54.166H44.4648L44.6376 55.8892H70.7568L70.584 54.166Z" fill="#E0F0E3"/>
<path d="M64.56 50.541H44.1216C44.1744 51.1146 44.2272 51.6906 44.2824 52.2642H64.7184C64.6656 51.6906 64.6104 51.1218 64.56 50.541Z" fill="#E0F0E3"/>
<path d="M40.6366 64.3431C40.9342 66.8871 41.2486 69.4303 41.5798 71.9727H33.9526C33.6214 69.4319 33.307 66.8887 33.0094 64.3431H40.6366ZM41.3566 63.5391H32.1118C32.4638 66.6207 32.8438 69.6999 33.2518 72.7767H42.4798C42.075 69.6999 41.695 66.6207 41.3398 63.5391H41.3566Z" fill="#65A772"/>
<path d="M72.0219 67.2002H45.9027C45.8331 66.6242 45.7635 66.0506 45.6963 65.4746H71.8131C71.8827 66.0578 71.9499 66.6314 72.0219 67.2002Z" fill="#E0F0E3"/>
<path d="M58.2457 70.8326H46.3561C46.2817 70.259 46.2097 69.683 46.1377 69.1094H58.0273C58.0993 69.683 58.1713 70.259 58.2457 70.8326Z" fill="#E0F0E3"/>
<path d="M65.3447 70.8326H60.2111C60.1367 70.259 60.0647 69.683 59.9927 69.1094H65.1263C65.1983 69.683 65.2799 70.259 65.3447 70.8326Z" fill="#E0F0E3"/>
<path d="M33.84 26.053L33.5016 25.5154C32.7624 24.3394 31.2552 23.2906 30.7344 22.9834L31.1232 22.2946C32.1449 22.9151 33.0579 23.6991 33.8256 24.6154C34.9872 23.0338 36.7056 21.3994 39.0576 19.6426L39.5544 20.2906C37.044 22.1698 35.2872 23.8906 34.1784 25.5466L33.84 26.053Z" fill="#65A772"/>
<path d="M34.7522 40.9953L34.3994 40.4577C33.6314 39.2817 32.0954 38.2305 31.5674 37.9233L31.9346 37.2345C32.9758 37.8552 33.9102 38.6396 34.7018 39.5577C35.8202 37.9737 37.493 36.3393 39.7994 34.5801C39.9698 34.7961 40.1426 35.0121 40.313 35.2305C37.853 37.1121 36.1418 38.8305 35.0786 40.4889C34.9682 40.6569 34.8602 40.8273 34.7522 40.9953Z" fill="#65A772"/>
<path d="M36.0769 55.9777L35.7097 55.4401C34.9081 54.2641 33.3433 53.2129 32.8081 52.9081C32.9233 52.6681 33.0481 52.4473 33.1585 52.2193C34.216 52.841 35.1699 53.624 35.9857 54.5401C37.0633 52.9561 38.6929 51.3241 40.9489 49.5625L41.4817 50.2129C39.0817 52.0945 37.4017 53.8129 36.3865 55.4713L36.0769 55.9777Z" fill="#65A772"/>
<path d="M60.2712 79.3117C58.8552 79.3117 58.0392 78.7885 57.3192 78.3277C56.5992 77.8669 55.98 77.4685 54.7848 77.4685C53.5896 77.4685 53.0568 77.8861 52.4928 78.3277C51.9288 78.7693 51.2376 79.3117 49.8216 79.3117C48.4056 79.3117 47.5896 78.7885 46.872 78.3277C46.1544 77.8669 45.5352 77.4685 44.3376 77.4685C43.14 77.4685 42.6096 77.8861 42.0456 78.3277C41.4816 78.7693 40.7904 79.3117 39.3768 79.3117C37.9632 79.3117 37.1448 78.7885 36.4248 78.3277C35.7048 77.8669 35.088 77.4685 33.8904 77.4685C33.8592 77.2285 33.8256 77.0077 33.7944 76.7773C35.2104 76.7773 36.024 77.3005 36.744 77.7613C37.464 78.2221 38.0808 78.6205 39.276 78.6205C40.4712 78.6205 41.004 78.2029 41.568 77.7613C42.132 77.3197 42.8256 76.7773 44.2416 76.7773C45.6576 76.7773 46.4688 77.3005 47.1888 77.7613C47.9088 78.2221 48.528 78.6205 49.7232 78.6205C50.9184 78.6205 51.4512 78.2029 52.0152 77.7613C52.5792 77.3197 53.2728 76.7773 54.6888 76.7773C56.1048 76.7773 56.9184 77.3005 57.6384 77.7613C58.3584 78.2221 58.9752 78.6205 60.1728 78.6205C60.204 78.8509 60.24 79.0813 60.2712 79.3117Z" fill="#EBEBEB"/>
<path d="M62.3015 12.4975C61.4903 10.3375 59.6159 8.91915 57.5999 8.91915H53.4911C53.1852 8.91648 52.8869 8.82409 52.633 8.65344C52.3792 8.48279 52.181 8.24138 52.0631 7.95915C51.7726 7.26934 51.2869 6.67944 50.6657 6.26201C50.0444 5.84457 49.3147 5.61779 48.5663 5.60955C47.8423 5.60221 47.1348 5.82613 46.5469 6.24873C45.959 6.67133 45.5213 7.27055 45.2975 7.95915C45.2063 8.2409 45.0274 8.48607 44.7868 8.65881C44.5463 8.83155 44.2568 8.92278 43.9607 8.91915H39.8543C37.8359 8.91915 36.0983 10.3447 35.4983 12.4975L35.2583 13.3543H62.6183L62.3015 12.4975Z" fill="#263238"/>
<path d="M62.4481 14.1989H35.5201C35.293 14.1963 35.0753 14.1077 34.911 13.9509C34.7466 13.7941 34.6478 13.5809 34.6345 13.3541C34.6286 13.2452 34.645 13.1362 34.6829 13.0339C34.7207 12.9316 34.779 12.8381 34.8544 12.7591C34.9297 12.6802 35.0204 12.6175 35.1208 12.575C35.2213 12.5325 35.3294 12.5109 35.4385 12.5117H62.3665C62.5932 12.5143 62.8105 12.6027 62.9748 12.7589C63.1391 12.9152 63.2381 13.1278 63.2521 13.3541C63.2583 13.4633 63.2421 13.5725 63.2044 13.6751C63.1668 13.7778 63.1085 13.8716 63.0331 13.9507C62.9577 14.0299 62.8669 14.0928 62.7663 14.1355C62.6657 14.1782 62.5574 14.1998 62.4481 14.1989Z" fill="#65A772"/>
<path opacity="0.2" d="M62.4481 14.1989H35.5201C35.293 14.1963 35.0753 14.1077 34.911 13.9509C34.7466 13.7941 34.6478 13.5809 34.6345 13.3541C34.6286 13.2452 34.645 13.1362 34.6829 13.0339C34.7207 12.9316 34.779 12.8381 34.8544 12.7591C34.9297 12.6802 35.0204 12.6175 35.1208 12.575C35.2213 12.5325 35.3294 12.5109 35.4385 12.5117H62.3665C62.5932 12.5143 62.8105 12.6027 62.9748 12.7589C63.1391 12.9152 63.2381 13.1278 63.2521 13.3541C63.2583 13.4633 63.2421 13.5725 63.2044 13.6751C63.1668 13.7778 63.1085 13.8716 63.0331 13.9507C62.9577 14.0299 62.8669 14.0928 62.7663 14.1355C62.6657 14.1782 62.5574 14.1998 62.4481 14.1989Z" fill="black"/>
</svg>
