<svg width="128" height="85" viewBox="0 0 128 85" fill="none" xmlns="http://www.w3.org/2000/svg">
<path d="M98.5208 85.0003C103.477 85.0003 107.496 80.2927 107.496 74.4855C107.496 68.6783 103.477 63.9707 98.5208 63.9707C93.5641 63.9707 89.5459 68.6783 89.5459 74.4855C89.5459 80.2927 93.5641 85.0003 98.5208 85.0003Z" fill="#65A772"/>
<path opacity="0.7" d="M98.5208 85.0003C103.477 85.0003 107.496 80.2927 107.496 74.4855C107.496 68.6783 103.477 63.9707 98.5208 63.9707C93.5641 63.9707 89.5459 68.6783 89.5459 74.4855C89.5459 80.2927 93.5641 85.0003 98.5208 85.0003Z" fill="#C5E0CA"/>
<path d="M117.14 70.6619C119.423 70.6619 121.274 68.4938 121.274 65.8193C121.274 63.1447 119.423 60.9766 117.14 60.9766C114.857 60.9766 113.007 63.1447 113.007 65.8193C113.007 68.4938 114.857 70.6619 117.14 70.6619Z" fill="#65A772"/>
<path opacity="0.6" d="M117.14 70.6619C119.423 70.6619 121.274 68.4938 121.274 65.8193C121.274 63.1447 119.423 60.9766 117.14 60.9766C114.857 60.9766 113.007 63.1447 113.007 65.8193C113.007 68.4938 114.857 70.6619 117.14 70.6619Z" fill="#C5E0CA"/>
<path d="M128 55.1708C128 55.5985 127.892 56.0167 127.689 56.3724C127.486 56.7281 127.198 57.0053 126.86 57.169C126.523 57.3327 126.152 57.3756 125.794 57.2921C125.435 57.2087 125.107 57.0027 124.848 56.7002C124.59 56.3977 124.414 56.0123 124.343 55.5927C124.272 55.1732 124.308 54.7383 124.448 54.343C124.588 53.9478 124.825 53.61 125.128 53.3723C125.432 53.1347 125.789 53.0078 126.154 53.0078C126.643 53.0078 127.113 53.2357 127.459 53.6413C127.805 54.047 128 54.5971 128 55.1708Z" fill="#65A772"/>
<path opacity="0.5" d="M128 55.1708C128 55.5985 127.892 56.0167 127.689 56.3724C127.486 56.7281 127.198 57.0053 126.86 57.169C126.523 57.3327 126.152 57.3756 125.794 57.2921C125.435 57.2087 125.107 57.0027 124.848 56.7002C124.59 56.3977 124.414 56.0123 124.343 55.5927C124.272 55.1732 124.308 54.7383 124.448 54.343C124.588 53.9478 124.825 53.61 125.128 53.3723C125.432 53.1347 125.789 53.0078 126.154 53.0078C126.643 53.0078 127.113 53.2357 127.459 53.6413C127.805 54.047 128 54.5971 128 55.1708Z" fill="#C5E0CA"/>
<path d="M97.3884 42.6916C97.3896 39.1049 96.5958 35.5792 95.0846 32.4599C93.5734 29.3405 91.3966 26.7345 88.7674 24.8969C88.7542 20.3685 87.6223 15.9416 85.5084 12.1504C83.3946 8.35931 80.3892 5.36616 76.8551 3.53241C73.321 1.69867 69.4094 1.10272 65.5926 1.81655C61.7758 2.53037 58.2169 4.52344 55.3458 7.55509C53.494 4.9187 51.1148 2.85921 48.4199 1.55971C45.7249 0.260196 42.7977 -0.239068 39.8984 0.106295C36.999 0.451657 34.2174 1.63095 31.8009 3.53932C29.3843 5.4477 27.4077 8.02605 26.0467 11.0451C23.5719 9.59146 20.7909 9.00784 18.0393 9.36469C15.2877 9.72153 12.683 11.0036 10.5395 13.0562C8.39602 15.1088 6.80528 17.8442 5.95923 20.9325C5.11318 24.0207 5.04797 27.3298 5.77147 30.4605C3.90672 31.9163 2.39615 33.9139 1.3873 36.2581C0.378448 38.6023 -0.0941921 41.213 0.0155478 43.8352C0.125288 46.4573 0.813657 49.0013 2.01341 51.2187C3.21317 53.436 4.88329 55.2508 6.86065 56.486C7.40933 59.9769 8.98451 63.1324 11.3125 65.4041C13.6406 67.6758 16.5743 68.9203 19.6041 68.9212C20.4173 68.9199 21.2286 68.8302 22.0276 68.6533C22.7394 70.6118 23.7949 72.3729 25.1254 73.8224C26.456 75.2719 28.032 76.3774 29.7509 77.0669C31.4698 77.7565 33.2933 78.0147 35.103 77.8249C36.9127 77.6351 38.668 77.0014 40.2551 75.9651C41.6223 77.4362 43.2433 78.546 45.0084 79.2195C46.7735 79.893 48.6415 80.1144 50.4859 79.8688C52.3303 79.6232 54.1082 78.9162 55.6993 77.7958C57.2903 76.6755 58.6574 75.1677 59.708 73.3747C61.5818 76.0592 64.1186 77.9988 66.9704 78.9276C69.8222 79.8564 72.8495 79.7288 75.637 78.5624C78.4245 77.396 80.8358 75.2479 82.5402 72.4126C84.2445 69.5773 85.1585 66.1938 85.1568 62.7259C85.1568 62.6302 85.1568 62.5345 85.1568 62.4324C88.7155 61.0803 91.8166 58.441 94.0144 54.8939C96.2122 51.3469 97.3934 47.0747 97.3884 42.6916Z" fill="#65A772"/>
<path opacity="0.8" d="M97.3884 42.6916C97.3896 39.1049 96.5958 35.5792 95.0846 32.4599C93.5734 29.3405 91.3966 26.7344 88.7674 24.8969C88.7542 20.3685 87.6223 15.9416 85.5084 12.1504C83.3946 8.35931 80.3892 5.36616 76.8551 3.53241C73.321 1.69867 69.4094 1.10272 65.5926 1.81655C61.7758 2.53037 58.2169 4.52344 55.3458 7.55509C53.4939 4.9187 51.1148 2.85921 48.4199 1.55971C45.7249 0.260196 42.7977 -0.239068 39.8984 0.106295C36.999 0.451657 34.2174 1.63095 31.8009 3.53932C29.3843 5.4477 27.4077 8.02605 26.0467 11.0451C23.5719 9.59146 20.7909 9.00784 18.0393 9.36469C15.2877 9.72153 12.683 11.0036 10.5395 13.0562C8.39602 15.1088 6.80528 17.8442 5.95923 20.9325C5.11318 24.0207 5.04797 27.3298 5.77147 30.4605C3.90672 31.9163 2.39615 33.9139 1.3873 36.2581C0.378448 38.6023 -0.0941921 41.213 0.0155478 43.8352C0.125288 46.4573 0.813657 49.0013 2.01341 51.2187C3.21317 53.436 4.88329 55.2508 6.86065 56.486C7.40932 59.9769 8.98451 63.1323 11.3125 65.4041C13.6406 67.6758 16.5743 68.9203 19.6041 68.9212C20.4173 68.9199 21.2286 68.8302 22.0276 68.6533C22.7394 70.6118 23.7949 72.3729 25.1254 73.8224C26.456 75.2719 28.032 76.3774 29.7509 77.0669C31.4698 77.7565 33.2933 78.0147 35.103 77.8249C36.9127 77.6351 38.668 77.0014 40.2551 75.9651C41.6223 77.4362 43.2433 78.546 45.0084 79.2195C46.7735 79.893 48.6415 80.1144 50.4859 79.8688C52.3303 79.6232 54.1082 78.9162 55.6993 77.7958C57.2903 76.6755 58.6574 75.1677 59.708 73.3747C61.5818 76.0592 64.1186 77.9988 66.9704 78.9276C69.8222 79.8564 72.8495 79.7288 75.637 78.5624C78.4245 77.396 80.8358 75.2479 82.5402 72.4126C84.2445 69.5773 85.1585 66.1938 85.1568 62.7259C85.1568 62.6302 85.1568 62.5345 85.1568 62.4324C88.7155 61.0803 91.8166 58.441 94.0144 54.8939C96.2122 51.3469 97.3934 47.0747 97.3884 42.6916Z" fill="#C5E0CA"/>
<path d="M50.4334 64.2972L49.8507 64.3738C49.8507 64.1823 48.315 49.1566 43.7731 41.7554C41.5075 42.7571 39.7648 41.8129 39.0296 40.4028C38.7418 39.9331 38.611 39.356 38.6622 38.7809C38.7134 38.2059 38.943 37.6728 39.3074 37.2828L39.4218 37.168L39.5634 37.2062C47.9283 39.4713 50.3354 63.2827 50.4334 64.2972ZM39.5851 37.9208C39.3727 38.2158 39.2518 38.5863 39.2419 38.9721C39.232 39.3578 39.3338 39.7361 39.5307 40.0455C40.1243 41.1748 41.5348 41.9596 43.4027 41.1812C42.4675 39.636 41.127 38.4911 39.5851 37.9208Z" fill="white"/>
<path d="M53.042 63.8291C52.8786 62.8274 49.11 39.2584 56.5165 34.1733L56.6472 34.084L56.7833 34.1542C57.2302 34.3985 57.5851 34.8263 57.7808 35.3566C57.9765 35.8869 57.9995 36.4829 57.8453 37.0317C57.4967 38.6396 56.0753 40.1517 53.6628 39.9794C51.2067 48.6312 53.5865 63.5101 53.6192 63.6952L53.042 63.8291ZM53.8697 39.3031C55.8412 39.3669 56.9957 38.1546 57.2734 36.8658C57.3834 36.5025 57.3845 36.1062 57.2766 35.7421C57.1687 35.378 56.9582 35.0677 56.6798 34.8624C55.3558 35.9451 54.3692 37.5042 53.8697 39.3031Z" fill="white"/>
<path d="M30.9865 34.014L30.4419 34.0778C30.3695 33.1808 30.3459 32.2794 30.3711 31.3789H30.9157C30.8897 32.2581 30.9133 33.1384 30.9865 34.014Z" fill="#65A772"/>
<path d="M31.1442 28.711L30.5996 28.6089C31.0183 25.6929 31.9897 22.924 33.4424 20.5059L33.889 20.8759C32.4848 23.2139 31.5468 25.8915 31.1442 28.711Z" fill="#65A772"/>
<path d="M56.4072 54.6425L44.8837 56.7033C44.47 56.7749 44.0477 56.6897 43.6783 56.4601C43.3089 56.2306 43.0119 55.8687 42.8305 55.4273C41.3834 51.7997 39.334 48.5462 36.8019 45.8567C34.6163 43.4927 33.0407 40.4577 32.2542 37.0968C31.4677 33.7358 31.5019 30.1837 32.3529 26.8444C33.2039 23.505 34.8376 20.5124 37.0681 18.2068C39.2987 15.9012 42.0367 14.375 44.9708 13.8019C47.0477 13.3949 49.1729 13.4757 51.2229 14.0397C53.2729 14.6036 55.2067 15.6394 56.9119 17.0868C58.6171 18.5343 60.0597 20.3645 61.1557 22.471C62.2518 24.5775 62.9794 26.9182 63.2963 29.3572C63.8489 33.5947 63.1372 37.9258 61.2813 41.6202C59.5597 45.013 58.4478 48.7822 58.0138 52.6965C57.9581 53.1791 57.7721 53.6283 57.4831 53.9784C57.1941 54.3285 56.8171 54.5612 56.4072 54.6425ZM45.1559 15.1418C42.4291 15.6614 39.8824 17.0706 37.8076 19.2078C35.7329 21.345 34.214 24.1238 33.425 27.2257C32.6361 30.3276 32.609 33.6271 33.3469 36.7462C34.0847 39.8654 35.5577 42.6778 37.597 44.8614C40.2393 47.6749 42.3807 51.0727 43.8979 54.8594C43.9661 55.0365 44.0816 55.1828 44.227 55.276C44.3725 55.3693 44.5399 55.4045 44.7039 55.3762L56.2275 53.3154C56.394 53.282 56.5466 53.1862 56.6625 53.0423C56.7784 52.8985 56.8513 52.7144 56.8701 52.5178C57.3174 48.4216 58.4718 44.475 60.263 40.9184C61.9841 37.4933 62.6439 33.4774 62.1309 29.5486C61.8385 27.2888 61.1653 25.1198 60.1503 23.1679C59.1354 21.2161 57.7991 19.5203 56.2192 18.1795C54.6393 16.8386 52.8475 15.8795 50.9481 15.358C49.0488 14.8365 47.0798 14.763 45.1559 15.1418Z" fill="#65A772"/>
<path d="M55.8631 66.9181L48.5275 68.2324C47.9874 68.3277 47.4372 68.1683 46.9972 67.7892C46.5573 67.4101 46.2635 66.8422 46.1803 66.2099L46.153 65.9802C46.1149 65.7183 46.1149 65.4508 46.153 65.189C45.7803 64.8034 45.5339 64.2777 45.456 63.7024V63.6003C45.4173 63.288 45.4283 62.97 45.4886 62.6624C45.1306 62.2765 44.8961 61.7586 44.8242 61.1949C44.7425 60.5334 44.8856 59.8607 45.2226 59.3215C45.5597 58.7822 46.0639 58.4194 46.6268 58.311L55.1715 56.7861C55.7361 56.6904 56.3103 56.8579 56.7706 57.2528C57.2308 57.6477 57.5405 58.2384 57.6331 58.898C57.71 59.4635 57.6177 60.0429 57.3717 60.5377C57.5081 60.8193 57.5969 61.1291 57.6331 61.4501V61.5522C57.7066 62.1298 57.6044 62.7193 57.3444 63.2175C57.4475 63.4543 57.5192 63.7082 57.5568 63.9704V64.2001C57.6325 64.8223 57.4978 65.4547 57.1815 65.9623C56.8651 66.47 56.3921 66.813 55.8631 66.9181ZM46.7957 59.67C46.5381 59.7172 46.307 59.8819 46.1529 60.1283C45.9987 60.3746 45.9342 60.6824 45.9733 60.9844C45.9955 61.1581 46.0519 61.3234 46.1379 61.4674C46.2238 61.6113 46.3372 61.7299 46.4689 61.8138L46.959 62.1392L46.7031 62.7262C46.6166 62.9226 46.5825 63.1448 46.6051 63.3642V63.4663C46.6276 63.6375 46.6842 63.8 46.7703 63.9407C46.8564 64.0815 46.9696 64.1966 47.1006 64.2766L47.5962 64.5765L47.362 65.1699C47.2917 65.3516 47.2689 65.5536 47.2967 65.7505V65.9738C47.3329 66.2462 47.4599 66.4906 47.6499 66.6533C47.8398 66.816 48.0771 66.8837 48.3096 66.8415L55.6453 65.5335C55.8771 65.4896 56.0849 65.3404 56.2235 65.1182C56.3621 64.8961 56.4205 64.619 56.3859 64.3468V64.1235C56.3577 63.9263 56.2822 63.7426 56.1681 63.5939L55.7978 63.109L56.1953 62.6496C56.2994 62.5274 56.3778 62.3784 56.4241 62.2145C56.4704 62.0505 56.4835 61.8762 56.4622 61.7053V61.6033C56.4302 61.3765 56.3388 61.1669 56.2008 61.0035L55.8032 60.5314L56.1899 60.0464C56.2944 59.9207 56.3724 59.7682 56.4177 59.6009C56.4631 59.4337 56.4746 59.2564 56.4513 59.083C56.432 58.9339 56.3878 58.7906 56.3213 58.6615C56.2547 58.5323 56.1671 58.4198 56.0634 58.3303C55.9598 58.2409 55.8421 58.1762 55.7171 58.14C55.592 58.1039 55.4622 58.0969 55.3349 58.1196L46.7957 59.67Z" fill="#65A772"/>
</svg>
