<svg width="128" height="78" viewBox="0 0 128 78" fill="none" xmlns="http://www.w3.org/2000/svg">
<path d="M64.1842 0.181641C44.8468 0.181641 26.766 5.37854 14.58 14.4275L16.6172 15.4247C28.0281 6.93989 44.824 1.99087 62.8707 1.74869V6.25039C33.8576 6.69771 10.4715 21.0433 10.4715 38.6228C10.4715 44.2955 12.9133 49.632 17.1899 54.2733L10.7308 56.6296C5.75042 51.2589 2.99812 45.0932 2.99812 38.6228C2.99812 32.4002 5.61936 26.2488 10.5769 20.8382L8.28049 20.0746C3.10923 25.7188 0.374023 32.1323 0.374023 38.6228C0.374023 46.4722 4.2774 54.0083 11.6625 60.456C18.8766 66.7413 28.8971 71.5507 40.6414 74.36L41.6102 72.8898C29.0054 69.8811 18.8025 64.593 12.0556 57.9943L18.5176 55.6352C27.9996 64.8381 44.9209 70.978 64.1842 70.978C93.7985 70.978 117.894 56.4472 117.894 38.6228C117.894 27.5366 108.631 17.3422 93.1062 11.3561L91.6816 12.6867C106.44 18.385 115.253 28.0723 115.253 38.6142C115.253 49.726 105.423 59.4844 90.7243 64.895L87.3566 61.6726C93.4452 59.4474 98.6535 56.3276 102.5 52.4755L100.252 51.6606C92.5591 59.3534 79.0711 63.9634 64.1671 63.9634C51.2062 63.9634 39.1627 60.4446 31.1166 54.3103L29.0567 55.2905C32.6373 57.9573 36.5931 60.0792 40.7953 61.5871L37.5558 64.8779C22.8939 59.4645 13.0927 49.7203 13.0927 38.6228C13.0927 21.6531 36.0115 7.85163 64.1813 7.85163C71.2916 7.81972 78.3743 8.73572 85.2425 10.5754L86.3251 9.15086C79.5265 7.32752 72.5248 6.37022 65.4863 6.30168V1.78573C98.6336 2.19601 125.367 18.5617 125.367 38.6228C125.367 58.946 97.9213 75.4797 64.1842 75.4797C60.0718 75.4775 55.9633 75.2253 51.8814 74.7247L51.3572 76.2718C55.6112 76.7912 59.8929 77.051 64.1785 77.0496C99.3601 77.0496 128 59.8064 128 38.6114C128 17.4163 99.3658 0.181641 64.1842 0.181641ZM43.0746 62.3735C49.471 64.4392 56.6823 65.5532 64.187 65.5532C71.6918 65.5532 78.7777 64.4677 85.0886 62.4732L88.4649 65.7071C81.2394 68.069 72.9682 69.411 64.1842 69.411C55.4002 69.411 47.0749 68.0605 39.8294 65.6843L43.0746 62.3735Z" fill="#65A772"/>
<path d="M105.563 48.8313C107.771 45.589 108.888 42.1529 108.888 38.6227C108.888 23.7728 88.8327 11.6895 64.1845 11.6895C53.6966 11.6895 43.4994 13.9232 35.4762 17.9747L37.1629 19.1856C44.716 15.3706 54.3121 13.2707 64.1845 13.2707C70.6494 13.2411 77.0829 14.1726 83.274 16.0345L79.6299 20.7128C74.6264 19.1759 69.4186 18.4074 64.1845 18.4335C62.0518 18.4326 59.9209 18.5544 57.8023 18.7982L58.2981 20.351C60.2523 20.1286 62.2176 20.0182 64.1845 20.0205C80.969 20.0205 94.645 28.1093 95.0553 38.1583H86.2428C86.0975 35.5941 84.7413 33.1324 82.2995 31.0211L80.1484 31.9272C82.4277 33.896 83.6329 36.2009 83.6329 38.6227C83.6329 44.6858 75.7835 49.8172 65.7629 50.3044L65.9709 51.88C68.6744 51.7554 71.3531 51.3048 73.9486 50.538L78.5272 55.0967C73.8794 56.5364 69.0387 57.2571 64.1731 57.2336C53.4203 57.2336 43.9439 53.9057 38.4023 48.8712L46.1121 46.2785C48.4399 48.2729 51.6794 49.8827 55.58 50.8771L56.6028 49.4211C55.9475 49.2521 55.314 49.0621 54.7024 48.8513L58.6229 45.1759C60.4229 45.7171 62.2934 45.9879 64.1731 45.9793C65.1369 45.9803 66.0996 45.9117 67.0536 45.7742L66.4382 44.2385C65.6834 44.3481 64.9216 44.4024 64.1588 44.4009C58.8594 44.4009 54.5514 41.8053 54.5514 38.6142C54.5514 35.4231 58.885 32.8418 64.1845 32.8418C69.4839 32.8418 73.789 35.4402 73.789 38.6313C73.789 40.0017 72.977 41.3352 71.5097 42.378L73.5041 43.4008C75.3817 42.0731 76.416 40.3778 76.416 38.6313C76.416 34.5684 70.9313 31.2633 64.1873 31.2633C62.2847 31.2547 60.3916 31.5323 58.5716 32.0867L54.597 28.4255C57.6889 27.4007 60.9272 26.8868 64.1845 26.9041C68.3243 26.9041 72.2761 27.6762 75.6125 29.1407L77.1568 27.8614C73.3702 26.2003 68.8942 25.3228 64.1845 25.3228C56.6997 25.3228 49.7847 27.5822 45.6876 31.3602L47.8843 32.2149C49.231 31.0101 50.7576 30.0228 52.4088 29.2888L56.3806 32.9443C53.6795 34.2977 51.9529 36.3349 51.9529 38.6142C51.9529 40.8935 53.7023 42.9592 56.4404 44.3126L52.5142 47.9994C47.6706 45.8198 44.7331 42.3723 44.7331 38.6227C44.7355 37.6359 44.9351 36.6594 45.3201 35.7508L42.79 35.3661C42.3535 36.3966 42.1269 37.5037 42.1233 38.6227C42.1233 40.8736 43.0635 43.0304 44.7588 44.928L37.066 47.515C34.667 44.871 33.3022 41.8423 33.3022 38.6227C33.3022 31.4998 40.183 24.9182 50.8361 21.8354L49.6964 20.4108C38.5362 23.6418 31.1938 30.42 30.7038 37.8307H22.1278C22.3927 32.554 25.3046 27.5594 30.6012 23.3426L28.5099 22.3881C22.6007 27.0921 19.478 32.705 19.478 38.6284C19.478 42.8253 21.0365 46.8455 24.1108 50.5779L26.4614 49.877C23.7632 46.5976 22.3044 43.0846 22.1221 39.4177H30.7009C31.3933 50.1847 46.1435 58.8177 64.1845 58.8177C82.6642 58.8177 97.6993 49.7602 97.6993 38.6284C97.6993 31.4143 91.3856 25.0777 81.9149 21.5049L85.5846 16.8009C97.9529 21.2228 106.264 29.3373 106.264 38.6227C106.264 41.9477 105.213 45.1759 103.13 48.2302L105.563 48.8313ZM80.8037 54.2961L76.2308 49.7374C81.7781 47.5378 85.5875 43.8795 86.1744 39.7339H95.0069C94.4114 45.8511 88.8897 51.1734 80.8037 54.2961Z" fill="#65A772"/>
</svg>
